<?xml version="1.0" encoding="utf-8"?>
<!-- Generator: Adobe Illustrator 16.0.0, SVG Export Plug-In . SVG Version: 6.00 Build 0)  -->
<!DOCTYPE svg PUBLIC "-//W3C//DTD SVG 1.1//EN" "http://www.w3.org/Graphics/SVG/1.1/DTD/svg11.dtd">
<svg version="1.1" xmlns="http://www.w3.org/2000/svg" xmlns:xlink="http://www.w3.org/1999/xlink" x="0px" y="0px"
	 width="210.021px" height="198.02px" viewBox="0 0 210.021 198.02" enable-background="new 0 0 210.021 198.02"
	 xml:space="preserve">
<g id="die_1" display="none">
	<path display="none" d="M154.187,139.196c0,4.971-4.029,9-9,9h-78c-4.971,0-9-4.029-9-9v-77c0-4.971,4.029-9,9-9h78
		c4.971,0,9,4.029,9,9V139.196z"/>
	<g display="none">
		<circle fill="#FFFFFF" cx="80.187" cy="100.53" r="9"/>
		<circle fill="#FFFFFF" cx="132.187" cy="100.53" r="9"/>
		<g>
			<circle fill="#FFFFFF" cx="80.187" cy="71.53" r="9"/>
			<circle fill="#FFFFFF" cx="80.187" cy="126.53" r="9"/>
		</g>
		<g>
			<circle fill="#FFFFFF" cx="132.187" cy="71.53" r="9"/>
			<circle fill="#FFFFFF" cx="132.187" cy="126.53" r="9"/>
		</g>
	</g>
</g>
<g id="die_2" display="none">
	<path display="none" d="M154.187,139.196c0,4.971-4.029,9-9,9h-78c-4.971,0-9-4.029-9-9v-77c0-4.971,4.029-9,9-9h78
		c4.971,0,9,4.029,9,9V139.196z"/>
	<g display="none">
		<circle fill="#FFFFFF" cx="106.187" cy="100.53" r="9"/>
		<g>
			<circle fill="#FFFFFF" cx="80.187" cy="71.53" r="9"/>
			<circle fill="#FFFFFF" cx="80.187" cy="126.53" r="9"/>
		</g>
		<g>
			<circle fill="#FFFFFF" cx="132.187" cy="71.53" r="9"/>
			<circle fill="#FFFFFF" cx="132.187" cy="126.53" r="9"/>
		</g>
	</g>
</g>
<g id="die_3" display="none">
	<path display="none" d="M154.187,139.196c0,4.971-4.029,9-9,9h-78c-4.971,0-9-4.029-9-9v-77c0-4.971,4.029-9,9-9h78
		c4.971,0,9,4.029,9,9V139.196z"/>
	<g display="none">
		<circle fill="#FFFFFF" cx="80.187" cy="71.53" r="9"/>
		<circle fill="#FFFFFF" cx="80.187" cy="126.53" r="9"/>
	</g>
	<g display="none">
		<circle fill="#FFFFFF" cx="132.187" cy="71.53" r="9"/>
		<circle fill="#FFFFFF" cx="132.187" cy="126.53" r="9"/>
	</g>
</g>
<g id="die_4" display="none">
	<path display="none" d="M154.187,139.196c0,4.971-4.029,9-9,9h-78c-4.971,0-9-4.029-9-9v-77c0-4.971,4.029-9,9-9h78
		c4.971,0,9,4.029,9,9V139.196z"/>
	<circle display="none" fill="#FFFFFF" cx="106.187" cy="100.53" r="9"/>
	<g display="none">
		<circle fill="#FFFFFF" cx="80.187" cy="71.53" r="9"/>
	</g>
	<g display="none">
		<circle fill="#FFFFFF" cx="132.187" cy="126.53" r="9"/>
	</g>
</g>
<g id="die_5" display="none">
	<path display="none" d="M154.187,139.196c0,4.971-4.029,9-9,9h-78c-4.971,0-9-4.029-9-9v-77c0-4.971,4.029-9,9-9h78
		c4.971,0,9,4.029,9,9V139.196z"/>
	<g display="none">
		<circle fill="#FFFFFF" cx="80.187" cy="71.53" r="9"/>
	</g>
	<g display="none">
		<circle fill="#FFFFFF" cx="132.187" cy="126.53" r="9"/>
	</g>
</g>
<g id="die_6">
	<path d="M154.187,139.196c0,4.971-4.029,9-9,9h-78c-4.971,0-9-4.029-9-9v-77c0-4.971,4.029-9,9-9h78c4.971,0,9,4.029,9,9V139.196z"
		/>
	<circle fill="#FFFFFF" cx="106.187" cy="100.53" r="9"/>
</g>
</svg>
